<svg width="895.000000" height="917.001221" viewBox="0 0 895 917.001" fill="none" xmlns="http://www.w3.org/2000/svg" xmlns:xlink="http://www.w3.org/1999/xlink">
	<desc>
			Created with Pixso.
	</desc>
	<defs>
		<linearGradient x1="439.526489" y1="0.001221" x2="439.526489" y2="118.524231" id="paint_linear_29_312_0" gradientUnits="userSpaceOnUse">
			<stop stop-color="#5574F2"/>
			<stop offset="1.000000" stop-color="#A08BFD"/>
		</linearGradient>
		<linearGradient x1="447.455933" y1="5.537109" x2="447.455933" y2="300.381378" id="paint_linear_29_313_0" gradientUnits="userSpaceOnUse">
			<stop stop-color="#5571F2"/>
			<stop offset="0.343603" stop-color="#9B89FC"/>
		</linearGradient>
		<linearGradient x1="494.500763" y1="225.001373" x2="447.500336" y2="917.001343" id="paint_linear_29_314_0" gradientUnits="userSpaceOnUse">
			<stop stop-color="#A08BFD"/>
			<stop offset="1.000000" stop-color="#4D6EF1"/>
		</linearGradient>
		<linearGradient x1="585.138916" y1="466.621368" x2="575.631165" y2="616.916748" id="paint_linear_29_311_0" gradientUnits="userSpaceOnUse">
			<stop stop-color="#A08BFD"/>
			<stop offset="1.000000" stop-color="#4D6EF1"/>
		</linearGradient>
		<linearGradient x1="348.304321" y1="414.909760" x2="340.957062" y2="619.690735" id="paint_linear_29_329_0" gradientUnits="userSpaceOnUse">
			<stop stop-color="#A08BFD"/>
			<stop offset="1.000000" stop-color="#4D6EF1"/>
		</linearGradient>
	</defs>
	<rect id="LOGO原" width="895.000000" height="917.000000" transform="translate(0.000000 0.001221)" fill="#FFFFFF" fill-opacity="0"/>
	<path id="path" d="M571.13 106.52L516.45 106.52C514.48 106.64 512.55 106.44 510.66 105.89C508.77 105.34 507.02 104.49 505.42 103.34C503.83 102.18 502.47 100.79 501.36 99.17C500.25 97.54 499.45 95.77 498.96 93.86L480.38 38.09L441.01 109.17C440.2 110.59 439.23 111.88 438.08 113.04C436.93 114.2 435.66 115.19 434.25 116.01C432.84 116.83 431.35 117.46 429.77 117.88C428.2 118.31 426.6 118.52 424.96 118.52C423.33 118.52 421.73 118.31 420.16 117.88C418.58 117.46 417.09 116.83 415.68 116.01C414.27 115.19 413 114.2 411.85 113.04C410.7 111.88 409.73 110.59 408.93 109.17L393.62 81.59L378.08 99.69C376.36 101.86 374.25 103.53 371.75 104.7C369.25 105.88 366.62 106.43 363.86 106.37L307.89 106.37C307.03 106.37 306.17 106.29 305.32 106.12C304.48 105.95 303.65 105.7 302.86 105.37C302.06 105.04 301.3 104.63 300.58 104.15C299.86 103.67 299.2 103.12 298.59 102.51C297.97 101.9 297.43 101.23 296.95 100.52C296.47 99.8 296.06 99.04 295.73 98.24C295.4 97.44 295.15 96.62 294.98 95.77C294.81 94.92 294.73 94.06 294.73 93.2C294.73 92.33 294.81 91.48 294.98 90.63C295.15 89.78 295.4 88.96 295.73 88.16C296.06 87.36 296.47 86.6 296.95 85.88C297.43 85.16 297.97 84.5 298.59 83.89C299.2 83.28 299.86 82.73 300.58 82.25C301.3 81.77 302.06 81.36 302.86 81.03C303.65 80.7 304.48 80.45 305.32 80.28C306.17 80.11 307.03 80.03 307.89 80.03L360.02 80.03L380.49 55.72C380.97 55.15 381.49 54.61 382.03 54.1C382.58 53.6 383.15 53.12 383.75 52.69C384.35 52.25 384.98 51.85 385.63 51.49C386.28 51.13 386.95 50.8 387.64 50.52C388.33 50.24 389.03 50 389.75 49.81C390.46 49.61 391.19 49.46 391.93 49.35C392.66 49.24 393.4 49.17 394.15 49.15C394.89 49.13 395.63 49.16 396.37 49.23C397.11 49.3 397.85 49.41 398.58 49.57C399.3 49.73 400.02 49.93 400.72 50.17C401.43 50.42 402.11 50.7 402.78 51.03C403.45 51.36 404.09 51.72 404.72 52.13C405.34 52.53 405.94 52.97 406.51 53.45C407.08 53.93 407.62 54.43 408.13 54.98C408.64 55.52 409.12 56.09 409.56 56.69C410 57.29 410.41 57.91 410.77 58.56L424.99 83.86L466.07 9.65C466.86 8.02 467.88 6.54 469.14 5.23C470.39 3.92 471.82 2.84 473.43 1.99C475.03 1.14 476.72 0.56 478.51 0.25C480.3 -0.06 482.1 -0.09 483.89 0.18C485.7 0.25 487.46 0.6 489.16 1.23C490.86 1.86 492.42 2.74 493.84 3.86C495.26 4.98 496.47 6.3 497.48 7.81C498.48 9.32 499.23 10.94 499.72 12.69L522.13 80.07L571.13 80.07C572 80.07 572.85 80.16 573.7 80.32C574.55 80.49 575.38 80.74 576.18 81.07C576.98 81.4 577.74 81.81 578.45 82.29C579.18 82.77 579.84 83.32 580.45 83.93C581.06 84.54 581.61 85.21 582.09 85.92C582.57 86.64 582.98 87.4 583.31 88.2C583.64 89 583.89 89.83 584.06 90.68C584.23 91.52 584.31 92.38 584.31 93.25C584.31 94.11 584.23 94.97 584.06 95.82C583.89 96.67 583.64 97.49 583.31 98.29C582.98 99.09 582.57 99.85 582.09 100.57C581.61 101.29 581.06 101.95 580.45 102.57C579.84 103.18 579.18 103.72 578.45 104.2C577.74 104.68 576.98 105.09 576.18 105.42C575.38 105.75 574.55 106 573.7 106.17C572.85 106.34 572 106.42 571.13 106.42L571.13 106.52Z" fill="url(#paint_linear_29_312_0)" fill-opacity="1.000000" fill-rule="nonzero"/>
	<path id="path" d="M202.6 110.83C200.63 110.83 198.66 110.71 196.69 110.49C194.73 110.27 192.79 109.93 190.86 109.49C188.94 109.05 187.05 108.5 185.18 107.85C183.32 107.19 181.5 106.44 179.72 105.58C177.94 104.72 176.22 103.76 174.55 102.71C172.88 101.65 171.27 100.51 169.73 99.27C168.19 98.04 166.73 96.72 165.33 95.32C163.94 93.92 162.63 92.45 161.4 90.9C160.17 89.36 159.04 87.75 157.99 86.07C156.94 84.4 156 82.67 155.14 80.89C154.29 79.1 153.54 77.28 152.89 75.41C152.25 73.55 151.71 71.65 151.28 69.73C150.85 67.8 150.52 65.85 150.31 63.89C150.09 61.93 149.99 59.96 150 57.98C150 56.01 150.12 54.04 150.35 52.08C150.58 50.12 150.92 48.18 151.36 46.25C151.81 44.33 152.36 42.44 153.02 40.58C153.68 38.72 154.45 36.9 155.31 35.12C156.18 33.35 157.14 31.63 158.2 29.96C159.26 28.29 160.41 26.69 161.64 25.15C162.88 23.61 164.2 22.15 165.61 20.76C167.01 19.37 168.49 18.07 170.04 16.84C171.59 15.62 173.2 14.49 174.88 13.45C176.56 12.41 178.29 11.46 180.07 10.61C181.86 9.77 183.68 9.02 185.55 8.38C187.42 7.74 189.32 7.21 191.25 6.78C193.17 6.35 195.12 6.04 197.08 5.83C199.05 5.62 201.02 5.52 202.99 5.53C204.97 5.55 206.93 5.67 208.89 5.9C210.85 6.14 212.8 6.48 214.72 6.94C216.64 7.39 218.53 7.95 220.39 8.61C222.25 9.28 224.07 10.05 225.84 10.92C227.61 11.79 229.33 12.75 230.99 13.82C232.66 14.88 234.26 16.03 235.79 17.28C237.32 18.52 238.78 19.85 240.17 21.25C241.55 22.66 242.85 24.14 244.07 25.7C245.29 27.25 246.42 28.87 247.46 30.55C248.49 32.23 249.43 33.96 250.27 35.75C251.11 37.54 251.85 39.36 252.49 41.23C253.12 43.1 253.65 45 254.08 46.93C254.5 48.86 254.81 50.81 255.01 52.77C255.21 54.74 255.31 56.71 255.29 58.68C255.27 60.65 255.14 62.62 254.9 64.58C254.66 66.54 254.31 68.48 253.85 70.4C253.39 72.32 252.83 74.21 252.16 76.07C251.49 77.93 250.71 79.74 249.84 81.51C248.96 83.28 247.99 85 246.92 86.66C245.85 88.32 244.7 89.91 243.45 91.45L342.06 269.1C343.82 272.27 344.69 275.67 344.67 279.29L344.67 280.9C344.57 282.21 344.35 283.51 344.01 284.78C343.67 286.06 343.21 287.29 342.64 288.47C342.07 289.66 341.39 290.78 340.6 291.84C339.82 292.9 338.95 293.88 337.98 294.78C337.01 295.67 335.97 296.47 334.85 297.17C333.74 297.87 332.56 298.46 331.34 298.94C330.11 299.42 328.85 299.78 327.55 300.02C326.25 300.26 324.95 300.38 323.63 300.38C321.77 300.35 319.95 300.09 318.16 299.59C316.37 299.09 314.68 298.36 313.08 297.42C311.48 296.47 310.04 295.33 308.74 294C307.44 292.67 306.34 291.19 305.43 289.57L205.92 110.78L202.6 110.83ZM692.26 110.83C694.23 110.83 696.2 110.72 698.16 110.5C700.12 110.27 702.07 109.94 703.99 109.5C705.92 109.06 707.81 108.52 709.68 107.86C711.54 107.21 713.36 106.45 715.14 105.6C716.92 104.74 718.64 103.78 720.32 102.73C721.99 101.68 723.6 100.53 725.14 99.3C726.68 98.07 728.15 96.75 729.54 95.35C730.94 93.95 732.25 92.48 733.48 90.93C734.71 89.39 735.85 87.78 736.89 86.1C737.94 84.43 738.89 82.7 739.74 80.92C740.6 79.14 741.35 77.31 741.99 75.45C742.64 73.58 743.18 71.69 743.62 69.76C744.05 67.83 744.38 65.89 744.59 63.93C744.81 61.96 744.91 59.99 744.91 58.02C744.9 56.04 744.78 54.07 744.56 52.11C744.33 50.15 743.99 48.21 743.55 46.28C743.1 44.36 742.55 42.47 741.89 40.61C741.23 38.74 740.47 36.92 739.6 35.15C738.74 33.37 737.78 31.65 736.72 29.98C735.66 28.31 734.51 26.71 733.28 25.17C732.04 23.63 730.72 22.17 729.31 20.78C727.91 19.39 726.43 18.08 724.88 16.86C723.33 15.63 721.72 14.5 720.04 13.46C718.36 12.42 716.63 11.47 714.85 10.62C713.07 9.78 711.24 9.03 709.37 8.39C707.5 7.75 705.61 7.21 703.68 6.79C701.75 6.36 699.8 6.04 697.84 5.83C695.88 5.62 693.91 5.52 691.93 5.53C689.96 5.55 687.99 5.67 686.03 5.9C684.07 6.14 682.12 6.48 680.2 6.93C678.28 7.38 676.39 7.94 674.53 8.61C672.67 9.27 670.85 10.04 669.08 10.91C667.31 11.78 665.59 12.75 663.92 13.81C662.26 14.87 660.66 16.03 659.12 17.27C657.59 18.51 656.13 19.84 654.74 21.24C653.36 22.65 652.05 24.13 650.84 25.69C649.62 27.24 648.49 28.86 647.45 30.54C646.42 32.22 645.48 33.95 644.63 35.74C643.79 37.53 643.05 39.36 642.42 41.23C641.78 43.1 641.25 44.99 640.83 46.92C640.41 48.85 640.09 50.8 639.89 52.77C639.69 54.73 639.6 56.7 639.61 58.67C639.63 60.65 639.76 62.62 640 64.58C640.24 66.54 640.59 68.48 641.05 70.4C641.51 72.32 642.07 74.21 642.75 76.07C643.42 77.93 644.19 79.74 645.06 81.51C645.94 83.28 646.91 85 647.98 86.66C649.05 88.32 650.21 89.91 651.45 91.45L552.65 269.1C550.92 272.28 550.05 275.67 550.04 279.29L550.04 280.9C550.14 282.21 550.36 283.51 550.7 284.78C551.04 286.06 551.5 287.29 552.07 288.47C552.65 289.66 553.32 290.78 554.11 291.84C554.89 292.9 555.77 293.88 556.73 294.78C557.7 295.67 558.74 296.47 559.86 297.17C560.98 297.87 562.15 298.46 563.38 298.94C564.61 299.42 565.87 299.78 567.16 300.02C568.46 300.26 569.77 300.38 571.09 300.38C572.94 300.35 574.76 300.09 576.54 299.58C578.33 299.08 580.01 298.35 581.61 297.4C583.2 296.46 584.64 295.32 585.93 293.99C587.23 292.66 588.33 291.19 589.23 289.57L688.75 110.78L692.11 110.78L692.26 110.83Z" fill="url(#paint_linear_29_313_0)" fill-opacity="1.000000" fill-rule="nonzero"/>
	<path id="矩形 69" d="M275 178L620 178C771.87 178 895 301.12 895 453L895 870C895 895.95 873.95 917 848 917L369.5 917C165.43 917 0 751.57 0 547.5L0 453C0 301.12 123.12 178 275 178Z" fill="url(#paint_linear_29_314_0)" fill-opacity="1.000000" fill-rule="evenodd"/>
	<rect id="矩形 71" x="105.000000" y="301.001221" rx="180.000000" width="685.000000" height="419.000000" fill="#FFFFFF" fill-opacity="1.000000"/>
	<path id="$" d="M601.34 520.43Q590.12 508.25 569 498.51L574.59 462.93Q575.47 463.42 576.31 463.97Q585.8 470.21 590.17 484.25L622.32 472.23Q621.67 465.06 619.07 458.69Q615.9 450.93 609.85 444.35Q609.27 443.72 608.68 443.11Q597.93 432 581.51 426.38L586.01 397.78L554.5 392.83L549.97 421.65Q529.99 422.2 515.43 431.37Q514.44 431.99 513.48 432.65Q509.02 435.71 505.59 439.66Q497.36 449.15 495.06 463.79Q492.87 477.74 498.07 487.9L498.09 487.93Q500.16 491.97 502.92 495.48Q507.1 500.8 512.84 504.9Q522.42 511.7 535.96 518L530.31 554.01Q526.41 552.08 523.15 549.37Q520.17 546.89 517.72 543.75Q512.66 537.21 509.19 526.69L477.79 538.61Q479.35 549.85 484.49 559.09Q487.89 565.2 492.85 570.44Q496.08 573.83 499.68 576.74Q510.07 585.15 523.58 589.7L518.8 620.1L550.31 625.05L555.12 594.42Q573.06 594.2 586.88 586.53Q588.93 585.4 590.89 584.1Q594.44 581.75 597.34 578.78Q606.9 568.99 609.5 552.42Q611.81 537.69 606.2 527.2Q604.25 523.56 601.34 520.43ZM529.91 470.7Q529.76 469.22 530 467.7Q530.46 464.81 531.96 462.66Q535.64 457.39 545.62 456.52L541.2 484.67Q530.65 478.17 529.91 470.7ZM572.24 554.4Q568.57 559.11 559.42 559.54L563.73 532.05Q569.63 535.74 572.44 539.78Q573.56 541.36 574.12 543.11Q574.98 545.82 574.49 548.95Q573.99 552.16 572.24 554.4Z" fill="url(#paint_linear_29_311_0)" fill-opacity="1.000000" fill-rule="evenodd"/>
	<path id="矢量 10" d="M278.31 409.39C268.16 420.15 268.63 437.13 279.36 447.31L345.77 510.34L279.36 573.37C268.63 583.55 268.16 600.53 278.31 611.3C288.46 622.06 305.39 622.53 316.12 612.34L402.54 530.31C408.23 524.92 411.03 517.62 410.91 510.34C411.03 503.07 408.23 495.76 402.54 490.37L316.12 408.34C305.39 398.15 288.46 398.62 278.31 409.39Z" fill="url(#paint_linear_29_329_0)" fill-opacity="1.000000" fill-rule="evenodd"/>
</svg>
