<svg xmlns="http://www.w3.org/2000/svg" width="606" height="614.564" viewBox="0 0 606 614.564">
  <g id="组_154" data-name="组 154" transform="translate(-13928 -3397)">
    <rect id="矩形_49" data-name="矩形 49" width="452" height="393" rx="44" transform="translate(14005 3520)" fill="#5660fe"/>
    <path id="矩形_50" data-name="矩形 50" d="M0,0H39A39,39,0,0,1,78,39V215a39,39,0,0,1-39,39H0a0,0,0,0,1,0,0V0A0,0,0,0,1,0,0Z" transform="translate(14456 3590)" fill="#5660fe"/>
    <path id="矩形_51" data-name="矩形 51" d="M39,0H78a0,0,0,0,1,0,0V254a0,0,0,0,1,0,0H39A39,39,0,0,1,0,215V39A39,39,0,0,1,39,0Z" transform="translate(13928 3590)" fill="#5660fe"/>
    <rect id="矩形_52" data-name="矩形 52" width="415" height="239" rx="53" transform="translate(14024 3597)" fill="#fff"/>
    <g id="组_151" data-name="组 151" transform="translate(751 9)">
      <circle id="椭圆_3" data-name="椭圆 3" cx="38" cy="38" r="38" transform="translate(13310 3388)" fill="#5660fe"/>
      <rect id="矩形_53" data-name="矩形 53" width="40" height="84" transform="translate(13346.113 3463.198) rotate(-30)" fill="#5660fe"/>
    </g>
    <g id="组_152" data-name="组 152" transform="translate(14305.246 3397)">
      <circle id="椭圆_3-2" data-name="椭圆 3" cx="38" cy="38" r="38" transform="translate(36.754)" fill="#5660fe"/>
      <rect id="矩形_53-2" data-name="矩形 53" width="40" height="84" transform="translate(34.641 147.944) rotate(-150)" fill="#5660fe"/>
    </g>
    <g id="组_153" data-name="组 153" transform="translate(674 19.772)">
      <rect id="矩形_54" data-name="矩形 54" width="36" height="131" rx="18" transform="matrix(0.695, -0.719, 0.719, 0.695, 13407.125, 3630.264)" fill="#01dda4"/>
      <rect id="矩形_55" data-name="矩形 55" width="36" height="131" rx="18" transform="translate(13500.91 3671) rotate(45)" fill="#01dda4"/>
    </g>
    <text id="_" data-name="$" transform="translate(14275 3779)" fill="#01dda4" font-size="195" font-family="Exotic350BT-Bold, Exotc350 Bd BT" font-weight="700"><tspan x="0" y="0">$</tspan></text>
    <path id="多边形_1" data-name="多边形 1" d="M57.938,21.027a13,13,0,0,1,22.846,0l47.5,87.441a13,13,0,0,1-11.423,19.206H21.857a13,13,0,0,1-11.423-19.206Z" transform="matrix(-0.899, -0.438, 0.438, -0.899, 14117.785, 4011.564)" fill="#5660fe"/>
  </g>
</svg>
