<?xml version="1.0" standalone="no"?><!DOCTYPE svg PUBLIC "-//W3C//DTD SVG 1.1//EN" "http://www.w3.org/Graphics/SVG/1.1/DTD/svg11.dtd"><svg t="1738919068337" class="icon" viewBox="0 0 1024 1024" version="1.1" xmlns="http://www.w3.org/2000/svg" p-id="11881" xmlns:xlink="http://www.w3.org/1999/xlink" width="228" height="228"><path d="M512 1023.232C140.128 1036.032-12.224 883.872 0.768 512-12.032 140.128 140.128-12.224 512 0.768 883.872-12.224 1036.224 140.192 1023.264 512 1036.16 883.872 883.904 1036.16 512 1023.232z" fill="#F6F6F6" p-id="11882"></path><path d="M357.216 354.784l-173.44 300.352a80.64 80.64 0 0 0 69.856 120.96h346.816a80.64 80.64 0 0 0 69.856-120.96l-173.44-300.352a80.608 80.608 0 0 0-139.648 0z" fill="#FF4373" p-id="11883"></path><path d="M611.392 500.672l-89.184 154.496a80.64 80.64 0 0 0 69.824 120.96h178.4a80.64 80.64 0 0 0 69.824-120.96l-89.184-154.496a80.672 80.672 0 0 0-139.68 0z" fill="#FFA5BC" p-id="11884"></path><path d="M600.352 776.096h-8.32a80.608 80.608 0 0 1-69.888-120.832l74.08-128.384 74.048 128.384a80.608 80.608 0 0 1-69.92 120.832z" fill="#FF1E58" p-id="11885"></path><path d="M681.216 271.872m-79.872 0a79.872 79.872 0 1 0 159.744 0 79.872 79.872 0 1 0-159.744 0Z" fill="#FF4373" p-id="11886"></path></svg>