<svg viewBox="0 0 275 300" xmlns="http://www.w3.org/2000/svg" xmlns:xlink="http://www.w3.org/1999/xlink" width="275.000000" height="300.000000" fill="none" customFrame="#000000">
	<defs>
		<linearGradient id="paint_linear_107" x1="275.000092" x2="137.53241" y1="130.798126" y2="185.279556" gradientUnits="userSpaceOnUse">
			<stop stop-color="rgb(235,162,255)" offset="0" stop-opacity="1" />
			<stop stop-color="rgb(120,129,250)" offset="1" stop-opacity="1" />
		</linearGradient>
		<linearGradient id="paint_linear_108" x1="222.631836" x2="304.642029" y1="7.80303192" y2="68.1969833" gradientUnits="userSpaceOnUse">
			<stop stop-color="rgb(225,223,253)" offset="0" stop-opacity="1" />
			<stop stop-color="rgb(163,178,252)" offset="1" stop-opacity="1" />
		</linearGradient>
		<linearGradient id="paint_linear_109" x1="47.5549774" x2="153.581406" y1="20.5457077" y2="155.340744" gradientUnits="userSpaceOnUse">
			<stop stop-color="rgb(255,216,186)" offset="0" stop-opacity="1" />
			<stop stop-color="rgb(233,132,252)" offset="1" stop-opacity="1" />
		</linearGradient>
		<linearGradient id="paint_linear_110" x1="244.664841" x2="157.513885" y1="84.2263947" y2="223.607941" gradientUnits="userSpaceOnUse">
			<stop stop-color="rgb(32,117,255)" offset="0" stop-opacity="1" />
			<stop stop-color="rgb(255,232,216)" offset="0.837222993" stop-opacity="1" />
		</linearGradient>
		<linearGradient id="paint_linear_111" x1="-0.725482941" x2="4.35865784" y1="35.0365257" y2="121.563164" gradientUnits="userSpaceOnUse">
			<stop stop-color="rgb(225,223,253)" offset="0" stop-opacity="1" />
			<stop stop-color="rgb(163,178,252)" offset="1" stop-opacity="1" />
		</linearGradient>
		<linearGradient id="paint_linear_112" x1="97.011116" x2="26.5479736" y1="108.329445" y2="275.582306" gradientUnits="userSpaceOnUse">
			<stop stop-color="rgb(68,112,255)" offset="0" stop-opacity="1" />
			<stop stop-color="rgb(130,130,255)" offset="0.983952999" stop-opacity="1" />
		</linearGradient>
		<linearGradient id="paint_linear_113" x1="119.271599" x2="119.240288" y1="295.368744" y2="295.623169" gradientUnits="userSpaceOnUse">
			<stop stop-color="rgb(225,223,254)" offset="0" stop-opacity="1" />
			<stop stop-color="rgb(163,179,253)" offset="1" stop-opacity="1" />
		</linearGradient>
		<linearGradient id="paint_linear_114" x1="142.453949" x2="99.6912003" y1="210.957443" y2="282.435883" gradientUnits="userSpaceOnUse">
			<stop stop-color="rgb(225,223,254)" offset="0" stop-opacity="1" />
			<stop stop-color="rgb(163,179,253)" offset="1" stop-opacity="1" />
		</linearGradient>
	</defs>
	<g id="组合 280">
		<path id="矢量 422" d="M216.353 261.167L255.592 238.931C267.605 232.122 275 219.535 275 205.917L275 94.0364C275 91.637 274.757 89.2753 274.309 86.9638C274.309 86.9638 273.042 79.753 269.038 73.7607C269.038 73.7733 269.051 73.7984 269.063 73.8109C271.367 79.238 272.313 85.1548 271.917 91.0214C271.571 96.1469 270.254 102.227 267.273 109.048C265.98 111.775 262.961 117.101 257.229 122.629C234.073 143.67 169.26 181.709 126.414 205.943C123.906 207.362 123.919 210.892 126.414 212.312L212.605 261.167C213.769 261.82 215.202 261.82 216.353 261.167Z" fill="url(#paint_linear_107)" fill-rule="nonzero" />
		<path id="矢量 425" d="M257.22 122.622C262.965 117.107 265.971 111.768 267.263 109.042C270.244 102.221 271.562 96.1406 271.907 91.015C272.304 85.1484 271.357 79.2316 269.054 73.8046C269.054 73.792 269.054 73.7795 269.041 73.7669C265.727 68.5912 261.161 64.1944 255.583 61.0287L228.652 45.7527C226.144 44.3332 223.022 46.1045 223.022 48.9436L223.022 147.86C237.429 138.338 249.583 129.557 257.22 122.622Z" fill="url(#paint_linear_108)" fill-rule="nonzero" />
		<path id="矢量 426" d="M196.129 27.3421L156.89 5.1066C144.877 -1.7022 130.087 -1.7022 118.074 5.1066L19.4086 61.0344C17.2847 62.2404 15.3274 63.6223 13.5107 65.1548C13.5107 65.1548 7.76626 69.8281 4.47827 76.2349C4.47827 76.2224 4.50387 76.2098 4.51666 76.1846C8.15007 71.5114 12.8966 67.7427 18.2699 65.1548C22.9651 62.8811 28.9782 60.9716 36.4882 60.0922C39.5331 59.8284 45.7508 59.7279 53.4782 61.851C83.6201 71.0215 149.571 107.113 192.367 131.434C194.875 132.853 197.983 131.069 197.983 128.244L197.983 30.5329C197.983 29.2139 197.267 27.9953 196.103 27.3421L196.129 27.3421Z" fill="url(#paint_linear_109)" fill-rule="nonzero" />
		<path id="矢量 427" d="M196.129 27.3421L156.89 5.1066C144.877 -1.7022 130.087 -1.7022 118.074 5.1066L19.4086 61.0344C17.2847 62.2404 15.3274 63.6223 13.5107 65.1548C13.5107 65.1548 7.76626 69.8281 4.47827 76.2349C4.47827 76.2224 4.50387 76.2098 4.51666 76.1846C8.15007 71.5114 12.8966 67.7427 18.2699 65.1548C22.9651 62.8811 28.9782 60.9716 36.4882 60.0922C39.5331 59.8284 45.7508 59.7279 53.4782 61.851C83.6201 71.0215 149.571 107.113 192.367 131.434C194.875 132.853 197.983 131.069 197.983 128.244L197.983 30.5329C197.983 29.2139 197.267 27.9953 196.103 27.3421L196.129 27.3421Z" fill="url(#paint_linear_110)" fill-rule="nonzero" />
		<path id="矢量 429" d="M53.5049 61.8659C45.7647 59.7428 39.5597 59.8433 36.5148 60.1071C29.0049 60.9864 22.9919 62.8959 18.2966 65.1697C12.9232 67.7701 8.17679 71.5263 4.54338 76.1995C4.54338 76.1995 4.53059 76.2246 4.5178 76.2372C1.61363 81.6391 0.0144043 87.7319 0.0144043 94.0507L0.0144043 124.59C0.0144043 127.429 3.13607 129.2 5.64365 127.781L92.884 78.3225C77.2757 70.8353 63.4584 64.8808 53.5177 61.8659L53.5049 61.8659Z" fill="url(#paint_linear_111)" fill-rule="nonzero" />
		<path id="矢量 430" d="M0 161.441L0 205.924C0 219.542 7.39477 232.13 19.4081 238.938L118.086 294.879C120.209 296.085 122.41 297.052 124.675 297.831L124.662 297.831C124.662 297.831 131.673 300.369 138.965 299.954C138.94 299.954 138.927 299.954 138.901 299.954C132.965 299.201 127.271 297.039 122.295 293.774C117.945 290.909 113.25 286.764 108.721 280.809C106.968 278.347 103.77 273.121 101.774 265.483C94.8015 235.27 93.65 161.14 93.7011 112.586C93.7011 109.748 90.5795 107.988 88.0719 109.408L1.88067 158.251C0.716445 158.904 0 160.122 0 161.441Z" fill="url(#paint_linear_112)" fill-rule="nonzero" />
		<path id="矢量 432" d="M119.477 295.618C119.336 295.542 119.195 295.48 119.054 295.405C119.195 295.48 119.336 295.555 119.477 295.618Z" fill="url(#paint_linear_113)" fill-rule="nonzero" />
		<path id="矢量 433" d="M183.848 273.219L96.6072 223.762C97.8098 240.771 99.4729 255.506 101.776 265.469C103.772 273.106 106.97 278.345 108.723 280.794C113.252 286.749 117.947 290.895 122.297 293.759C127.274 297.025 132.967 299.187 138.903 299.94C138.916 299.94 138.929 299.94 138.942 299.94C145.159 299.714 151.339 298.018 156.904 294.864L183.835 279.589C186.343 278.169 186.343 274.627 183.835 273.207L183.848 273.219Z" fill="url(#paint_linear_114)" fill-rule="nonzero" />
	</g>
</svg>
