<?xml version="1.0" standalone="no"?><!DOCTYPE svg PUBLIC "-//W3C//DTD SVG 1.1//EN" "http://www.w3.org/Graphics/SVG/1.1/DTD/svg11.dtd"><svg t="1738919205863" class="icon" viewBox="0 0 1024 1024" version="1.1" xmlns="http://www.w3.org/2000/svg" p-id="24174" xmlns:xlink="http://www.w3.org/1999/xlink" width="228" height="228"><path d="M877.952621 344.694619a45.096938 45.096938 0 0 1 22.470645 38.961133l0.696319 397.205313a45.055978 45.055978 0 0 1-22.536181 39.141357l-343.318363 198.000545a44.826602 44.826602 0 0 1-44.867562-0.04096l-344.399707-199.409568a45.113322 45.113322 0 0 1-22.462453-38.952941l-0.65536-397.180738a45.121514 45.121514 0 0 1 22.536181-39.149549l343.318363-197.992353a44.826602 44.826602 0 0 1 44.818411 0z" fill="#E5EBFF" p-id="24175"></path><path d="M218.701737 282.40268a42.737643 42.737643 0 1 0 85.475287 0 42.737643 42.737643 0 1 0-85.475287 0Z" fill="#FFFFFF" p-id="24176"></path><path d="M261.439381 264.241025a18.161655 18.161655 0 1 0 18.161655 18.161655 18.186231 18.186231 0 0 0-18.161655-18.161655m0-24.575988a42.737643 42.737643 0 1 1-42.737644 42.737643 42.737643 42.737643 0 0 1 42.737644-42.737643z" fill="#396AFC" p-id="24177"></path><path d="M335.011697 123.953093a16.973816 16.973816 0 1 0 33.947632 0 16.973816 16.973816 0 1 0-33.947632 0Z" fill="#396AFC" p-id="24178"></path><path d="M617.955049 140.9351a11.321339 11.321339 0 1 0 22.642678 0 11.321339 11.321339 0 1 0-22.642678 0Z" fill="#396AFC" p-id="24179"></path><path d="M557.055751 8.191996m-8.191996 0a8.191996 8.191996 0 1 0 16.383992 0 8.191996 8.191996 0 1 0-16.383992 0Z" fill="#396AFC" p-id="24180"></path><path d="M499.113762 78.684122m-5.660669 0a5.660669 5.660669 0 1 0 11.321339 0 5.660669 5.660669 0 1 0-11.321339 0Z" fill="#396AFC" p-id="24181"></path><path d="M753.770152 152.248247m-11.321338 0a11.321339 11.321339 0 1 0 22.642677 0 11.321339 11.321339 0 1 0-22.642677 0Z" fill="#396AFC" p-id="24182"></path><path d="M448.192315 265.428865a22.634485 22.634485 0 1 0 45.26897 0 22.634485 22.634485 0 1 0-45.26897 0Z" fill="#396AFC" p-id="24183"></path><path d="M832.994946 305.037166a16.973816 16.973816 0 1 0 33.947632 0 16.973816 16.973816 0 1 0-33.947632 0Z" fill="#396AFC" p-id="24184"></path><path d="M693.206725 469.704479l-44.802026-44.802027a49.012712 49.012712 0 0 0-34.652144-14.360569H378.838876a49.012712 49.012712 0 0 0-49.012712 49.012712v318.807911a49.012712 49.012712 0 0 0 49.012712 49.012713H658.554582a49.012712 49.012712 0 0 0 49.012712-49.012713V504.356622a49.012712 49.012712 0 0 0-14.352377-34.643951z" fill="#9AB3FF" p-id="24185"></path><path d="M378.838876 402.349887h234.913679a56.836069 56.836069 0 0 1 40.476653 16.760824l44.802026 44.810218a56.819685 56.819685 0 0 1 16.752632 40.435693v274.005884a57.270245 57.270245 0 0 1-57.204708 57.204709H378.838876a57.270245 57.270245 0 0 1-57.204708-57.204709V459.554595a57.270245 57.270245 0 0 1 57.204708-57.204708z m308.600684 73.170909l-44.826602-44.826603a40.558573 40.558573 0 0 0-28.860403-11.960314H378.838876a40.869868 40.869868 0 0 0-40.820716 40.820716v318.807911a40.869868 40.869868 0 0 0 40.820716 40.820717H658.554582a40.869868 40.869868 0 0 0 40.820716-40.820717V504.356622a41.099244 41.099244 0 0 0-11.935738-28.835826z" fill="#262B3A" p-id="24186"></path><path d="M593.256181 584.2122H446.177084a24.510452 24.510452 0 0 1 0-49.012713h147.079097a24.510452 24.510452 0 0 1 0 49.012713z" fill="#396AFC" p-id="24187"></path><path d="M593.256181 592.404196H446.177084a32.702448 32.702448 0 0 1 0-65.396705h147.079097a32.702448 32.702448 0 0 1 0 65.396705z m-147.046329-49.012713a16.318456 16.318456 0 0 0 0 32.628721h147.046329a16.318456 16.318456 0 0 0 0-32.628721z" fill="#262B3A" p-id="24188"></path><path d="M568.680193 701.693615H446.177084a24.510452 24.510452 0 0 1 0-49.012712h122.503109a24.510452 24.510452 0 0 1 0 49.012712z" fill="#FFFFFF" p-id="24189"></path><path d="M568.680193 709.885611H446.177084a32.702448 32.702448 0 0 1 0-65.396704h122.503109a32.702448 32.702448 0 0 1 0 65.396704z m-122.470341-49.012712a16.318456 16.318456 0 0 0 0 32.62872h122.470341a16.318456 16.318456 0 0 0 0-32.62872z" fill="#262B3A" p-id="24190"></path></svg>